<svg width="95" height="19" viewBox="0 0 95 19" fill="none" xmlns="http://www.w3.org/2000/svg">
<path d="M8.48083 18V1.99451L1 12.3957V14.0146H11" stroke="black" stroke-width="2" stroke-linecap="round" stroke-linejoin="round"/>
<path d="M19.9162 17C18.2134 17 16.8831 16.3414 15.9253 15.0243C14.9751 13.7072 14.5 11.8034 14.5 9.31309C14.5 6.57805 14.9979 4.50877 15.9937 3.10526C16.9895 1.70175 18.4263 1 20.3039 1C23.8995 1 25.6973 3.64507 25.6973 8.93522C25.6973 11.5551 25.188 13.556 24.1693 14.9379C23.1583 16.3126 21.7406 17 19.9162 17ZM20.1784 2.9973C18.1944 2.9973 17.2024 5.06658 17.2024 9.20513C17.2024 13.0774 18.1754 15.0135 20.1214 15.0135C22.0371 15.0135 22.9949 13.045 22.9949 9.10796C22.9949 5.03419 22.0561 2.9973 20.1784 2.9973Z" fill="black"/>
<path d="M32.8922 17C31.1895 17 29.8592 16.3414 28.9014 15.0243C27.9512 13.7072 27.4761 11.8034 27.4761 9.31309C27.4761 6.57805 27.974 4.50877 28.9698 3.10526C29.9656 1.70175 31.4023 1 33.2799 1C36.8755 1 38.6733 3.64507 38.6733 8.93522C38.6733 11.5551 38.164 13.556 37.1454 14.9379C36.1344 16.3126 34.7166 17 32.8922 17ZM33.1545 2.9973C31.1705 2.9973 30.1784 5.06658 30.1784 9.20513C30.1784 13.0774 31.1515 15.0135 33.0975 15.0135C35.0131 15.0135 35.9709 13.045 35.9709 9.10796C35.9709 5.03419 35.0321 2.9973 33.1545 2.9973Z" fill="black"/>
<path d="M58.7417 16.7409H56.0964V10.7166C56.0964 9.55781 55.9215 8.7193 55.5718 8.20108C55.2298 7.68286 54.6482 7.42375 53.8273 7.42375C53.1355 7.42375 52.5464 7.75124 52.0599 8.40621C51.581 9.06118 51.3415 9.84571 51.3415 10.7598V16.7409H48.6847V10.5115C48.6847 8.45299 47.917 7.42375 46.3814 7.42375C45.6669 7.42375 45.0777 7.73324 44.614 8.35223C44.1579 8.97121 43.9299 9.77373 43.9299 10.7598V16.7409H41.2845V5.68556H43.9299V7.43455H43.9755C44.8193 6.09582 46.0469 5.42645 47.6585 5.42645C48.4643 5.42645 49.1674 5.63878 49.768 6.06343C50.3761 6.48088 50.7904 7.03149 51.0108 7.71525C51.8774 6.18938 53.1697 5.42645 54.8877 5.42645C57.4571 5.42645 58.7417 6.92713 58.7417 9.92848V16.7409Z" fill="black"/>
<path d="M79.4259 16.7409H76.7805V10.7166C76.7805 9.55781 76.6057 8.7193 76.256 8.20108C75.9139 7.68286 75.3324 7.42375 74.5114 7.42375C73.8196 7.42375 73.2305 7.75124 72.744 8.40621C72.2651 9.06118 72.0257 9.84571 72.0257 10.7598V16.7409H69.3689V10.5115C69.3689 8.45299 68.6011 7.42375 67.0656 7.42375C66.351 7.42375 65.7619 7.73324 65.2982 8.35223C64.8421 8.97121 64.614 9.77373 64.614 10.7598V16.7409H61.9686V5.68556H64.614V7.43455H64.6596C65.5034 6.09582 66.7311 5.42645 68.3426 5.42645C69.1484 5.42645 69.8516 5.63878 70.4521 6.06343C71.0602 6.48088 71.4745 7.03149 71.695 7.71525C72.5616 6.18938 73.8539 5.42645 75.5718 5.42645C78.1412 5.42645 79.4259 6.92713 79.4259 9.92848V16.7409Z" fill="black"/>
<path d="M94.5 11.2348H89.996V15.4993H88.1146V11.2348H83.6106V9.45344H88.1146V5.17814H89.996V9.45344H94.5V11.2348Z" fill="black"/>
</svg>
