<svg width="55" height="18" viewBox="0 0 55 18" fill="none" xmlns="http://www.w3.org/2000/svg">
<path d="M4.98816 15.8597V18H3.75615V15.9386C2.27372 15.9386 1.06841 15.6559 0.140229 15.0904V12.891C0.547563 13.2395 1.09846 13.5321 1.79293 13.7688C2.49408 14.0055 3.14849 14.1238 3.75615 14.1238V9.73479C2.18023 9.01808 1.15856 8.35726 0.691131 7.75233C0.230377 7.1474 0 6.43068 0 5.60219C0 4.62247 0.353912 3.77753 1.06174 3.0674C1.76956 2.35068 2.6677 1.92 3.75615 1.77534V0H4.98816V1.73589C6.39046 1.77534 7.35871 1.95945 7.89292 2.28822V4.3989C7.16506 3.87288 6.19681 3.59014 4.98816 3.55068V8.09753C6.45723 8.76822 7.46221 9.41918 8.0031 10.0504C8.54398 10.6816 8.81442 11.3951 8.81442 12.1907C8.81442 13.1573 8.47721 13.966 7.80277 14.617C7.12833 15.2679 6.19013 15.6822 4.98816 15.8597ZM3.75615 7.53534V3.6C3.25533 3.69863 2.85801 3.90904 2.5642 4.23123C2.27038 4.55342 2.12347 4.94466 2.12347 5.40493C2.12347 5.89151 2.24367 6.28931 2.48406 6.59836C2.72446 6.9074 3.14849 7.21973 3.75615 7.53534ZM4.98816 10.2674V14.0647C6.12335 13.8279 6.69095 13.246 6.69095 12.3189C6.69095 11.543 6.12335 10.8592 4.98816 10.2674Z" fill="black"/>
<path d="M20.2531 2.93918C19.6522 4.02411 19.0846 5.09918 18.5504 6.16438C18.0161 7.22301 17.532 8.28822 17.098 9.36C16.6639 10.4318 16.2866 11.5134 15.9661 12.6049C15.6456 13.6899 15.3985 14.8011 15.2249 15.9386H12.7909C12.9512 14.926 13.1782 13.9167 13.472 12.9107C13.7725 11.8981 14.1231 10.8888 14.5238 9.88274C14.9244 8.87014 15.3718 7.85425 15.866 6.83507C16.3668 5.81589 16.8976 4.78685 17.4586 3.74795H10.6574V1.79507H20.2531V2.93918Z" fill="black"/>
<path d="M31.2511 2.93918C30.6502 4.02411 30.0826 5.09918 29.5484 6.16438C29.0141 7.22301 28.53 8.28822 28.096 9.36C27.6619 10.4318 27.2846 11.5134 26.9641 12.6049C26.6436 13.6899 26.3965 14.8011 26.2229 15.9386H23.7889C23.9492 14.926 24.1762 13.9167 24.47 12.9107C24.7705 11.8981 25.1211 10.8888 25.5218 9.88274C25.9224 8.87014 26.3698 7.85425 26.864 6.83507C27.3648 5.81589 27.8956 4.78685 28.4566 3.74795H21.6554V1.79507H31.2511V2.93918Z" fill="black"/>
<path d="M33.7252 15.9386V1.79507H38.2826C39.6716 1.79507 40.77 2.09425 41.578 2.6926C42.3927 3.29096 42.8 4.07014 42.8 5.03014C42.8 5.83233 42.5697 6.52931 42.1089 7.1211C41.6482 7.71288 41.0104 8.1337 40.1958 8.38356V8.42301C41.1841 8.53479 41.972 8.89644 42.5596 9.50795C43.1539 10.1129 43.4511 10.9019 43.4511 11.8751C43.4511 13.0849 42.967 14.0647 41.9987 14.8142C41.0305 15.5638 39.8085 15.9386 38.3327 15.9386H33.7252ZM36.0991 3.6789V7.70301H37.6416C38.4696 7.70301 39.1173 7.51233 39.5848 7.13096C40.0589 6.74301 40.2959 6.19726 40.2959 5.4937C40.2959 4.28384 39.4746 3.6789 37.8319 3.6789H36.0991ZM36.0991 9.58685V14.0647H38.1324C39.0205 14.0647 39.705 13.8641 40.1858 13.463C40.6732 13.0553 40.917 12.4964 40.917 11.7863C40.917 10.32 39.8853 9.58685 37.8219 9.58685H36.0991Z" fill="black"/>
<path d="M55 15.9386H52.6762V10.2477C52.6762 8.36055 51.9984 7.41699 50.6429 7.41699C49.935 7.41699 49.3508 7.68 48.89 8.20603C48.4292 8.72548 48.1989 9.38301 48.1989 10.1786V15.9386H45.8651V5.8389H48.1989V7.51562H48.2389C49.0069 6.24 50.1153 5.60219 51.5644 5.60219C52.6795 5.60219 53.5309 5.96055 54.1186 6.67726C54.7062 7.3874 55 8.41644 55 9.76438V15.9386Z" fill="black"/>
</svg>
