<svg width="21" height="21" viewBox="0 0 21 21" fill="none" xmlns="http://www.w3.org/2000/svg">
<path d="M11.5197 13.6146C11.3848 13.4798 11.3201 13.3168 11.3255 13.1258C11.3309 12.9348 11.4012 12.7719 11.5365 12.6371L13.441 10.7326H5.92417C5.73316 10.7326 5.57294 10.6678 5.4435 10.5384C5.31406 10.409 5.24957 10.249 5.25002 10.0584C5.25002 9.8674 5.31474 9.70717 5.44417 9.57774C5.57361 9.4483 5.73361 9.3838 5.92417 9.38425H13.441L11.5197 7.46291C11.3848 7.32808 11.3174 7.16785 11.3174 6.98223C11.3174 6.79662 11.3848 6.63662 11.5197 6.50223C11.6545 6.3674 11.8147 6.29999 12.0003 6.29999C12.186 6.29999 12.346 6.3674 12.4803 6.50223L15.5646 9.5865C15.632 9.65392 15.6799 9.72695 15.7082 9.8056C15.7365 9.88425 15.7505 9.96852 15.75 10.0584C15.75 10.1483 15.7358 10.2326 15.7075 10.3112C15.6792 10.3899 15.6316 10.4629 15.5646 10.5303L12.4635 13.6314C12.3399 13.755 12.1855 13.8168 12.0003 13.8168C11.8152 13.8168 11.655 13.7494 11.5197 13.6146Z" fill="black"/>
</svg>
