<svg width="50" height="21" viewBox="0 0 50 21" fill="none" xmlns="http://www.w3.org/2000/svg">
<path d="M5.98126 18.503V21H4.50396V18.5951C2.7264 18.5951 1.28113 18.2652 0.168148 17.6055V15.0395C0.656578 15.446 1.31716 15.7874 2.14989 16.0636C2.99063 16.3397 3.77532 16.4778 4.50396 16.4778V11.3573C2.6143 10.5211 1.38922 9.75014 0.828729 9.04438C0.276243 8.33863 0 7.50247 0 6.53589C0 5.39288 0.424374 4.40712 1.27312 3.57863C2.12187 2.74247 3.19882 2.24 4.50396 2.07123V0H5.98126V2.02521C7.66274 2.07123 8.82376 2.28603 9.46433 2.66959V5.13205C8.59156 4.51836 7.43054 4.18849 5.98126 4.14247V9.44712C7.74281 10.2296 8.94787 10.989 9.59645 11.7255C10.245 12.4619 10.5693 13.2942 10.5693 14.2225C10.5693 15.3501 10.1649 16.2937 9.35623 17.0532C8.54752 17.8126 7.42253 18.2959 5.98126 18.503ZM4.50396 8.79123V4.2C3.90344 4.31507 3.42702 4.56055 3.07471 4.93644C2.7224 5.31233 2.54624 5.76877 2.54624 6.30575C2.54624 6.87342 2.69037 7.33753 2.97862 7.69808C3.26688 8.05863 3.77532 8.42301 4.50396 8.79123ZM5.98126 11.9786V16.4088C7.34246 16.1326 8.02306 15.4537 8.02306 14.3721C8.02306 13.4668 7.34246 12.669 5.98126 11.9786Z" fill="black"/>
<path d="M13.4158 17.9852V15.4767C14.5368 16.3282 15.8019 16.754 17.2111 16.754C18.3562 16.754 19.269 16.5047 19.9496 16.006C20.6382 15.5074 20.9825 14.8323 20.9825 13.9808C20.9825 12.109 19.4892 11.1732 16.5025 11.1732H15.1693V9.03288H16.4425C19.0928 9.03288 20.418 8.15068 20.418 6.3863C20.418 4.76 19.3851 3.94685 17.3192 3.94685C16.1662 3.94685 15.0813 4.34192 14.0644 5.13205V2.76164C15.2334 2.1326 16.6146 1.81808 18.208 1.81808C19.7374 1.81808 20.9624 2.1863 21.8833 2.92274C22.8041 3.65918 23.2645 4.60274 23.2645 5.75342C23.2645 7.92438 22.1115 9.32055 19.8054 9.94192V9.98794C21.0465 10.103 22.0274 10.5211 22.748 11.2422C23.4687 11.9556 23.829 12.8493 23.829 13.9233C23.829 15.4038 23.2485 16.6005 22.0874 17.5134C20.9264 18.4186 19.3971 18.8712 17.4994 18.8712C15.7939 18.8712 14.4327 18.5759 13.4158 17.9852Z" fill="black"/>
<path d="M38.7821 4.41863H33.8338V18.5951H30.9753V4.41863H26.0389V2.09425H38.7821V4.41863Z" fill="black"/>
<path d="M50 18.5951H47.2136V11.9556C47.2136 9.75397 46.4008 8.65315 44.7754 8.65315C43.9267 8.65315 43.226 8.96 42.6736 9.5737C42.1211 10.1797 41.8448 10.9468 41.8448 11.8751V18.5951H39.0464V6.81205H41.8448V8.76822H41.8929C42.8137 7.28 44.1428 6.53589 45.8804 6.53589C47.2176 6.53589 48.2385 6.95397 48.9431 7.79014C49.6477 8.61863 50 9.81918 50 11.3918V18.5951Z" fill="black"/>
</svg>
