<svg width="19" height="19" viewBox="0 0 19 19" fill="none" xmlns="http://www.w3.org/2000/svg">
<g clip-path="url(#clip0_1_14)">
<path d="M10.9396 3.28269C7.61928 2.393 4.17468 4.38174 3.28499 7.70211C2.3953 11.0225 4.38404 14.4671 7.70441 15.3568C11.0248 16.2465 14.4694 14.2577 15.3591 10.9373C16.2488 7.61697 14.26 4.17238 10.9396 3.28269ZM8.02793 14.1494C5.3656 13.436 3.77903 10.688 4.4924 8.02563C5.20577 5.3633 7.95379 3.77673 10.6161 4.4901C13.2785 5.20347 14.865 7.95149 14.1517 10.6138C13.4383 13.2762 10.6903 14.8627 8.02793 14.1494ZM10.4327 6.38209L9.52713 6.13944L8.55656 9.76167L11.1782 12.5347L11.8714 11.8793L9.59153 9.52135L10.4327 6.38209Z" fill="#FFA140"/>
</g>
<defs>
<clipPath id="clip0_1_14">
<rect width="15" height="15" fill="white" transform="translate(4.01873 0.134125) rotate(15)"/>
</clipPath>
</defs>
</svg>
